<svg width="512" height="512" viewBox="0 0 512 512" fill="none" xmlns="http://www.w3.org/2000/svg">
  <!-- Background - maskable icons need solid background -->
  <rect width="512" height="512" fill="white"/>
  
  <!-- Location pin marker - centered with extra padding for safe zone (20% on each side) -->
  <g transform="translate(156, 96) scale(2)">
    <path 
      d="M50 0C30.67 0 15 15.67 15 35C15 54.33 50 75 50 75C50 75 85 54.33 85 35C85 15.67 69.33 0 50 0ZM50 47C42.27 47 36 40.73 36 33C36 25.27 42.27 19 50 19C57.73 19 64 25.27 64 33C64 40.73 57.73 47 50 47Z"
      fill="#1a1a1a"
      fill-rule="evenodd"
    />
    
    <!-- Stylized M letter -->
    <path 
      d="M10 120V82L50 108L90 82V120H75V98L50 114L25 98V120H10Z"
      fill="#1a1a1a"
    />
  </g>
</svg>
